<svg xmlns="http://www.w3.org/2000/svg" xmlns:xlink="http://www.w3.org/1999/xlink" zoomAndPan="magnify" preserveAspectRatio="xMidYMid meet" version="1.0" viewBox="19.5 344.45 763.52 114.12"><defs><clipPath id="771edd317f"><path d="M 19.5 344.46875 L 115.902344 344.46875 L 115.902344 458.945312 L 19.5 458.945312 Z M 19.5 344.46875 " clip-rule="nonzero"/></clipPath><clipPath id="a448171af0"><path d="M 57.539062 344.46875 L 115.902344 344.46875 L 77.863281 458.582031 L 19.5 458.582031 Z M 57.539062 344.46875 " clip-rule="nonzero"/></clipPath><clipPath id="251ac676c6"><path d="M 115.902344 344.46875 L 212.304688 344.46875 L 212.304688 458.945312 L 115.902344 458.945312 Z M 115.902344 344.46875 " clip-rule="nonzero"/></clipPath><clipPath id="d80b2ea0d9"><path d="M 153.941406 344.46875 L 212.304688 344.46875 L 174.265625 458.582031 L 115.902344 458.582031 Z M 153.941406 344.46875 " clip-rule="nonzero"/></clipPath><clipPath id="b090d829ec"><path d="M 208.441406 344.46875 L 304.84375 344.46875 L 304.84375 458.945312 L 208.441406 458.945312 Z M 208.441406 344.46875 " clip-rule="nonzero"/></clipPath><clipPath id="c1e24dec7b"><path d="M 246.480469 344.46875 L 304.84375 344.46875 L 266.804688 458.582031 L 208.441406 458.582031 Z M 246.480469 344.46875 " clip-rule="nonzero"/></clipPath><clipPath id="88393b3233"><path d="M 304.84375 344.46875 L 401.246094 344.46875 L 401.246094 458.945312 L 304.84375 458.945312 Z M 304.84375 344.46875 " clip-rule="nonzero"/></clipPath><clipPath id="cf4bc89886"><path d="M 342.882812 344.46875 L 401.246094 344.46875 L 363.207031 458.582031 L 304.84375 458.582031 Z M 342.882812 344.46875 " clip-rule="nonzero"/></clipPath><clipPath id="c7a54467ae"><path d="M 397.386719 344.46875 L 493.785156 344.46875 L 493.785156 458.945312 L 397.386719 458.945312 Z M 397.386719 344.46875 " clip-rule="nonzero"/></clipPath><clipPath id="8f68b295c5"><path d="M 435.421875 344.46875 L 493.785156 344.46875 L 455.75 458.582031 L 397.386719 458.582031 Z M 435.421875 344.46875 " clip-rule="nonzero"/></clipPath><clipPath id="fa60b4cc76"><path d="M 493.785156 344.46875 L 590.1875 344.46875 L 590.1875 458.945312 L 493.785156 458.945312 Z M 493.785156 344.46875 " clip-rule="nonzero"/></clipPath><clipPath id="9deb5845a0"><path d="M 531.824219 344.46875 L 590.1875 344.46875 L 552.152344 458.582031 L 493.785156 458.582031 Z M 531.824219 344.46875 " clip-rule="nonzero"/></clipPath><clipPath id="b4948a9092"><path d="M 590.1875 344.46875 L 686.589844 344.46875 L 686.589844 458.945312 L 590.1875 458.945312 Z M 590.1875 344.46875 " clip-rule="nonzero"/></clipPath><clipPath id="a924958503"><path d="M 628.226562 344.46875 L 686.589844 344.46875 L 648.554688 458.582031 L 590.1875 458.582031 Z M 628.226562 344.46875 " clip-rule="nonzero"/></clipPath><clipPath id="3b89d1b561"><path d="M 686.589844 344.46875 L 782.992188 344.46875 L 782.992188 458.945312 L 686.589844 458.945312 Z M 686.589844 344.46875 " clip-rule="nonzero"/></clipPath><clipPath id="4748e82e52"><path d="M 724.628906 344.46875 L 782.992188 344.46875 L 744.957031 458.582031 L 686.589844 458.582031 Z M 724.628906 344.46875 " clip-rule="nonzero"/></clipPath></defs><g clip-path="url(#771edd317f)"><g clip-path="url(#a448171af0)"><path fill="#ffffff" d="M 19.5 344.46875 L 115.902344 344.46875 L 115.902344 458.566406 L 19.5 458.566406 Z M 19.5 344.46875 " fill-opacity="1" fill-rule="nonzero"/></g></g><g clip-path="url(#251ac676c6)"><g clip-path="url(#d80b2ea0d9)"><path fill="#ffffff" d="M 115.902344 344.46875 L 212.304688 344.46875 L 212.304688 458.566406 L 115.902344 458.566406 Z M 115.902344 344.46875 " fill-opacity="1" fill-rule="nonzero"/></g></g><g clip-path="url(#b090d829ec)"><g clip-path="url(#c1e24dec7b)"><path fill="#ffffff" d="M 208.441406 344.46875 L 304.84375 344.46875 L 304.84375 458.566406 L 208.441406 458.566406 Z M 208.441406 344.46875 " fill-opacity="1" fill-rule="nonzero"/></g></g><g clip-path="url(#88393b3233)"><g clip-path="url(#cf4bc89886)"><path fill="#ffffff" d="M 304.84375 344.46875 L 401.246094 344.46875 L 401.246094 458.566406 L 304.84375 458.566406 Z M 304.84375 344.46875 " fill-opacity="1" fill-rule="nonzero"/></g></g><g clip-path="url(#c7a54467ae)"><g clip-path="url(#8f68b295c5)"><path fill="#ffffff" d="M 397.386719 344.46875 L 493.785156 344.46875 L 493.785156 458.566406 L 397.386719 458.566406 Z M 397.386719 344.46875 " fill-opacity="1" fill-rule="nonzero"/></g></g><g clip-path="url(#fa60b4cc76)"><g clip-path="url(#9deb5845a0)"><path fill="#ffffff" d="M 493.785156 344.46875 L 590.1875 344.46875 L 590.1875 458.566406 L 493.785156 458.566406 Z M 493.785156 344.46875 " fill-opacity="1" fill-rule="nonzero"/></g></g><g clip-path="url(#b4948a9092)"><g clip-path="url(#a924958503)"><path fill="#ffffff" d="M 590.1875 344.46875 L 686.589844 344.46875 L 686.589844 458.566406 L 590.1875 458.566406 Z M 590.1875 344.46875 " fill-opacity="1" fill-rule="nonzero"/></g></g><g clip-path="url(#3b89d1b561)"><g clip-path="url(#4748e82e52)"><path fill="#ffffff" d="M 686.589844 344.46875 L 782.992188 344.46875 L 782.992188 458.566406 L 686.589844 458.566406 Z M 686.589844 344.46875 " fill-opacity="1" fill-rule="nonzero"/></g></g></svg>