<svg xmlns="http://www.w3.org/2000/svg" xmlns:xlink="http://www.w3.org/1999/xlink" width="1080" zoomAndPan="magnify" viewBox="0 0 810 809.999993" height="1080" preserveAspectRatio="xMidYMid meet" version="1.0"><defs><clipPath id="4b3710aa07"><path d="M 166.558594 60 L 643.558594 60 L 643.558594 743 L 166.558594 743 Z M 166.558594 60 " clip-rule="nonzero"/></clipPath></defs><g clip-path="url(#4b3710aa07)"><path fill="#ffffff" d="M 405 60.023438 C 536.683594 60.023438 643.441406 166.78125 643.441406 298.46875 C 643.441406 344.285156 630.507812 387.074219 608.105469 423.410156 C 581.234375 467.921875 554.359375 512.441406 527.488281 556.957031 C 494.761719 610.15625 468.28125 653.203125 435.554688 706.402344 C 406.703125 753.308594 404.753906 754.464844 375.75 707.316406 C 343.191406 654.382812 315.816406 609.886719 283.257812 556.957031 C 256.445312 512.941406 229.640625 468.925781 202.828125 424.914062 C 179.859375 388.257812 166.558594 344.917969 166.558594 298.46875 C 166.558594 166.78125 273.3125 60.023438 405 60.023438 Z M 405 179.570312 C 464.035156 179.570312 511.894531 227.429688 511.894531 286.460938 C 511.894531 345.5 464.039062 393.355469 405 393.355469 C 345.960938 393.355469 298.105469 345.496094 298.105469 286.460938 C 298.109375 227.429688 345.964844 179.570312 405 179.570312 Z M 405 179.570312 " fill-opacity="1" fill-rule="evenodd"/></g></svg>