<svg xmlns="http://www.w3.org/2000/svg" xmlns:xlink="http://www.w3.org/1999/xlink" width="1080" zoomAndPan="magnify" viewBox="0 0 810 809.999993" height="1080" preserveAspectRatio="xMidYMid meet" version="1.0"><defs><clipPath id="6565335181"><path d="M 300.796875 185 L 509.296875 185 L 509.296875 625 L 300.796875 625 Z M 300.796875 185 " clip-rule="nonzero"/></clipPath></defs><g clip-path="url(#6565335181)"><path fill="#ffffff" d="M 461.195312 257.605469 L 509.296875 257.605469 L 509.296875 185.128906 L 447.875 185.128906 L 447.875 185.40625 C 367.121094 188.363281 350.46875 233.570312 349.082031 281.363281 L 348.898438 281.363281 L 348.898438 331.652344 L 300.796875 331.652344 L 300.796875 404.222656 L 348.898438 404.222656 L 348.898438 624.800781 L 435.203125 624.800781 L 435.203125 404.222656 L 497.085938 404.222656 L 509.296875 331.652344 L 435.203125 331.652344 L 435.203125 286.632812 C 435.203125 270.640625 445.933594 257.605469 461.195312 257.605469 Z M 461.195312 257.605469 " fill-opacity="1" fill-rule="nonzero"/></g></svg>