<svg xmlns="http://www.w3.org/2000/svg" xmlns:xlink="http://www.w3.org/1999/xlink" width="1080" zoomAndPan="magnify" viewBox="0 0 810 809.999993" height="1080" preserveAspectRatio="xMidYMid meet" version="1.0"><defs><clipPath id="7f65755725"><path d="M 184.464844 184.464844 L 625.464844 184.464844 L 625.464844 625.464844 L 184.464844 625.464844 Z M 184.464844 184.464844 " clip-rule="nonzero"/></clipPath></defs><g clip-path="url(#7f65755725)"><path fill="#ffffff" d="M 522.765625 625.535156 L 287.230469 625.535156 C 230.566406 625.535156 184.464844 579.433594 184.464844 522.765625 L 184.464844 287.230469 C 184.464844 230.566406 230.566406 184.464844 287.230469 184.464844 L 522.765625 184.464844 C 579.433594 184.464844 625.535156 230.566406 625.535156 287.230469 L 625.535156 522.765625 C 625.535156 579.433594 579.433594 625.535156 522.765625 625.535156 Z M 287.230469 201.460938 C 239.9375 201.460938 201.460938 239.9375 201.460938 287.230469 L 201.460938 522.765625 C 201.460938 570.058594 239.9375 608.539062 287.230469 608.539062 L 522.765625 608.539062 C 570.058594 608.539062 608.539062 570.058594 608.539062 522.765625 L 608.539062 287.230469 C 608.539062 239.9375 570.058594 201.460938 522.765625 201.460938 Z M 287.230469 201.460938 " fill-opacity="1" fill-rule="nonzero"/></g><path fill="#ffffff" d="M 405 501.359375 C 347.179688 501.359375 300.140625 454.320312 300.140625 396.5 C 300.140625 338.679688 347.179688 291.640625 405 291.640625 C 462.816406 291.640625 509.855469 338.679688 509.855469 396.5 C 509.855469 454.320312 462.816406 501.359375 405 501.359375 Z M 405 308.640625 C 356.550781 308.640625 317.136719 348.054688 317.136719 396.5 C 317.136719 444.949219 356.550781 484.363281 405 484.363281 C 453.445312 484.363281 492.859375 444.949219 492.859375 396.5 C 492.859375 348.054688 453.445312 308.640625 405 308.640625 Z M 405 308.640625 " fill-opacity="1" fill-rule="nonzero"/><path fill="#ffffff" d="M 358.136719 396.5 L 341.140625 396.5 C 341.140625 361.289062 369.785156 332.640625 405 332.640625 L 405 349.636719 C 379.160156 349.636719 358.136719 370.660156 358.136719 396.5 Z M 358.136719 396.5 " fill-opacity="1" fill-rule="nonzero"/><path fill="#ffffff" d="M 544.777344 294.027344 C 528.5 294.027344 515.257812 280.785156 515.257812 264.511719 C 515.257812 248.234375 528.5 234.992188 544.777344 234.992188 C 561.050781 234.992188 574.289062 248.234375 574.289062 264.511719 C 574.289062 280.785156 561.050781 294.027344 544.777344 294.027344 Z M 544.777344 251.988281 C 537.871094 251.988281 532.253906 257.605469 532.253906 264.511719 C 532.253906 271.414062 537.871094 277.03125 544.777344 277.03125 C 551.679688 277.03125 557.292969 271.414062 557.292969 264.511719 C 557.292969 257.605469 551.679688 251.988281 544.777344 251.988281 Z M 544.777344 251.988281 " fill-opacity="1" fill-rule="nonzero"/></svg>