<svg xmlns="http://www.w3.org/2000/svg" xmlns:xlink="http://www.w3.org/1999/xlink" width="1080" zoomAndPan="magnify" viewBox="0 0 810 809.999993" height="1080" preserveAspectRatio="xMidYMid meet" version="1.0"><defs><clipPath id="076f521cec"><path d="M 184.464844 184.464844 L 625.464844 184.464844 L 625.464844 625.464844 L 184.464844 625.464844 Z M 184.464844 184.464844 " clip-rule="nonzero"/></clipPath></defs><g clip-path="url(#076f521cec)"><path fill="#ffffff" d="M 625.535156 558.46875 C 625.535156 595.484375 595.527344 625.492188 558.511719 625.492188 L 251.5 625.492188 C 214.484375 625.492188 184.480469 595.484375 184.480469 558.46875 L 184.480469 251.457031 C 184.480469 214.441406 214.484375 184.4375 251.5 184.4375 L 558.511719 184.4375 C 595.527344 184.4375 625.535156 214.441406 625.535156 251.457031 Z M 625.535156 558.46875 " fill-opacity="1" fill-rule="nonzero"/></g><path fill="#000000" d="M 358.882812 341.792969 C 358.882812 342.871094 358.828125 343.949219 358.722656 345.023438 C 358.617188 346.097656 358.460938 347.164062 358.25 348.21875 C 358.039062 349.277344 357.777344 350.324219 357.464844 351.355469 C 357.152344 352.390625 356.789062 353.40625 356.375 354.402344 C 355.960938 355.398438 355.5 356.371094 354.992188 357.324219 C 354.484375 358.277344 353.929688 359.199219 353.328125 360.097656 C 352.730469 360.996094 352.089844 361.859375 351.402344 362.695312 C 350.71875 363.527344 349.996094 364.328125 349.230469 365.089844 C 348.46875 365.855469 347.671875 366.578125 346.835938 367.261719 C 346.003906 367.945312 345.136719 368.589844 344.238281 369.1875 C 343.34375 369.789062 342.417969 370.339844 341.464844 370.851562 C 340.515625 371.359375 339.539062 371.820312 338.542969 372.234375 C 337.546875 372.644531 336.53125 373.007812 335.5 373.320312 C 334.464844 373.636719 333.421875 373.898438 332.363281 374.109375 C 331.304688 374.320312 330.238281 374.476562 329.164062 374.582031 C 328.089844 374.6875 327.011719 374.742188 325.933594 374.742188 C 324.855469 374.742188 323.777344 374.6875 322.703125 374.582031 C 321.632812 374.476562 320.566406 374.320312 319.507812 374.109375 C 318.449219 373.898438 317.402344 373.636719 316.371094 373.320312 C 315.335938 373.007812 314.324219 372.644531 313.324219 372.234375 C 312.328125 371.820312 311.355469 371.359375 310.402344 370.851562 C 309.449219 370.339844 308.527344 369.789062 307.628906 369.1875 C 306.730469 368.589844 305.867188 367.945312 305.03125 367.261719 C 304.199219 366.578125 303.398438 365.855469 302.636719 365.089844 C 301.875 364.328125 301.148438 363.527344 300.464844 362.695312 C 299.78125 361.859375 299.136719 360.996094 298.539062 360.097656 C 297.941406 359.199219 297.386719 358.277344 296.875 357.324219 C 296.367188 356.371094 295.90625 355.398438 295.496094 354.402344 C 295.082031 353.40625 294.71875 352.390625 294.40625 351.355469 C 294.089844 350.324219 293.828125 349.277344 293.621094 348.21875 C 293.410156 347.164062 293.25 346.097656 293.144531 345.023438 C 293.039062 343.949219 292.984375 342.871094 292.984375 341.792969 C 292.984375 340.714844 293.039062 339.636719 293.144531 338.5625 C 293.25 337.488281 293.410156 336.421875 293.621094 335.363281 C 293.828125 334.304688 294.089844 333.261719 294.40625 332.226562 C 294.71875 331.195312 295.082031 330.179688 295.496094 329.183594 C 295.90625 328.1875 296.367188 327.210938 296.875 326.261719 C 297.386719 325.308594 297.941406 324.386719 298.539062 323.488281 C 299.136719 322.589844 299.78125 321.726562 300.464844 320.890625 C 301.148438 320.054688 301.875 319.257812 302.636719 318.496094 C 303.398438 317.730469 304.199219 317.007812 305.03125 316.324219 C 305.867188 315.640625 306.730469 314.996094 307.628906 314.398438 C 308.527344 313.796875 309.449219 313.242188 310.402344 312.734375 C 311.355469 312.226562 312.328125 311.765625 313.324219 311.351562 C 314.324219 310.941406 315.335938 310.578125 316.371094 310.261719 C 317.402344 309.949219 318.449219 309.6875 319.507812 309.476562 C 320.566406 309.265625 321.632812 309.109375 322.703125 309.003906 C 323.777344 308.898438 324.855469 308.84375 325.933594 308.84375 C 327.011719 308.84375 328.089844 308.898438 329.164062 309.003906 C 330.238281 309.109375 331.304688 309.265625 332.363281 309.476562 C 333.421875 309.6875 334.464844 309.949219 335.5 310.261719 C 336.53125 310.578125 337.546875 310.941406 338.542969 311.351562 C 339.539062 311.765625 340.515625 312.226562 341.464844 312.734375 C 342.417969 313.242188 343.34375 313.796875 344.238281 314.398438 C 345.136719 314.996094 346.003906 315.640625 346.835938 316.324219 C 347.671875 317.007812 348.46875 317.730469 349.230469 318.496094 C 349.996094 319.257812 350.71875 320.054688 351.402344 320.890625 C 352.089844 321.726562 352.730469 322.589844 353.328125 323.488281 C 353.929688 324.386719 354.484375 325.308594 354.992188 326.261719 C 355.5 327.210938 355.960938 328.1875 356.375 329.183594 C 356.789062 330.179688 357.152344 331.195312 357.464844 332.226562 C 357.777344 333.261719 358.039062 334.304688 358.25 335.363281 C 358.460938 336.421875 358.617188 337.488281 358.722656 338.5625 C 358.828125 339.636719 358.882812 340.714844 358.882812 341.792969 Z M 358.882812 341.792969 " fill-opacity="1" fill-rule="nonzero"/><path fill="#000000" d="M 297.53125 399.03125 L 354.132812 399.03125 L 354.132812 581.125 L 297.53125 581.125 Z M 297.53125 399.03125 " fill-opacity="1" fill-rule="nonzero"/><path fill="#000000" d="M 389.734375 399.03125 L 443.609375 399.03125 L 443.609375 581.125 L 389.734375 581.125 Z M 389.734375 399.03125 " fill-opacity="1" fill-rule="nonzero"/><path fill="#000000" d="M 392.0625 495.984375 L 445.9375 495.984375 L 445.9375 581.125 L 392.0625 581.125 Z M 392.0625 495.984375 " fill-opacity="1" fill-rule="nonzero"/><path fill="#000000" d="M 445.9375 495.984375 C 445.9375 495.984375 445.09375 472.363281 451.324219 460.085938 C 451.324219 460.085938 457.554688 444.960938 477.132812 444.871094 C 477.132812 444.871094 500.09375 440.863281 506.679688 463.648438 C 506.679688 463.648438 509.171875 476.28125 509.171875 481.625 C 509.171875 486.96875 509.351562 581.125 509.351562 581.125 L 565.777344 581.125 L 565.777344 476.820312 C 565.777344 476.820312 569.871094 417.898438 534.507812 401.761719 C 534.507812 401.761719 476.359375 375.65625 444.800781 423.597656 C 444.800781 423.597656 437.914062 428.339844 436.964844 415.050781 C 436.015625 401.761719 427.945312 435.460938 427.707031 436.175781 C 427.472656 436.886719 436.964844 503.339844 436.964844 503.339844 Z M 445.9375 495.984375 " fill-opacity="1" fill-rule="nonzero"/></svg>